<svg xmlns="http://www.w3.org/2000/svg" width="100" height="100" viewBox="0 0 100 100">
    <circle fill="#ffffff" cx="50" cy="50" r="45"/>
    <path fill="#ae1f00" d="M49.965 20c-11.534.003-21.023 9.493-21.025 21.027a20.9 20.9 0 0 0 2.747 10.365c.016.034.025.077.045.109l.784 1.258c.005.009.01.019.017.027l16.678 26.716c.415.665 1.094.665 1.506 0l16.679-26.716c.006-.008.012-.019.016-.027L68.2 51.5c.02-.031.027-.075.043-.109a20.89 20.89 0 0 0 2.748-10.365C70.989 29.492 61.499 20.002 49.965 20M100 50c0 27.613-22.387 50-50 50S0 77.613 0 50 22.387 0 50 0s50 22.387 50 50"/>
    <path fill="#ffe9b3" d="M70.991 41.026c.001 3.636-.946 7.209-2.747 10.367-.019.033-.025.077-.045.108l-.784 1.259c-.005.007-.01.016-.017.025l-16.68 26.716c-.198.319-.457.475-.719.487V20.001c11.52.021 20.989 9.505 20.992 21.025"/>
    <path fill="#ae1f00" d="M53.356 37.408l6.907 3.357-6.907 3.357-3.357 6.907-3.357-6.907-6.907-3.357 6.907-3.357 3.357-6.908 3.357 6.908z"/>
</svg>
